<mxfile host="app.diagrams.net" modified="2023-02-04T15:48:14.634Z" agent="5.0 (Windows NT 10.0; Win64; x64) AppleWebKit/537.36 (KHTML, like Gecko) Chrome/109.0.0.0 Safari/537.36 Edg/109.0.1518.70" etag="69n6l7vLA66TmeTQM6vq" version="20.8.16" type="github">
  <diagram id="C5RBs43oDa-KdzZeNtuy" name="Page-1">
    <mxGraphModel dx="1296" dy="1667" grid="1" gridSize="10" guides="1" tooltips="1" connect="1" arrows="1" fold="1" page="1" pageScale="1" pageWidth="827" pageHeight="1169" math="0" shadow="0">
      <root>
        <mxCell id="WIyWlLk6GJQsqaUBKTNV-0" />
        <mxCell id="WIyWlLk6GJQsqaUBKTNV-1" parent="WIyWlLk6GJQsqaUBKTNV-0" />
        <mxCell id="6yo70VMg6lP2LdjrL4yp-1" value="USER&amp;nbsp;" style="swimlane;whiteSpace=wrap;html=1;fillColor=#fff2cc;strokeColor=#d6b656;" parent="WIyWlLk6GJQsqaUBKTNV-1" vertex="1">
          <mxGeometry x="-45" y="-530" width="285" height="205" as="geometry" />
        </mxCell>
        <mxCell id="6yo70VMg6lP2LdjrL4yp-2" value="PK- Username NOT NULL Varchar(50)&lt;br&gt;Password NOT NULL Varchar(20)&lt;br&gt;Name Varchar(50)&lt;br&gt;Surname Varchar(50)&lt;br&gt;Email NOT NULL Varchar(50)&lt;br&gt;CellNumber NOT NULL Int(10)&lt;br&gt;AlternativeCellNumber Int(10)&lt;br style=&quot;border-color: var(--border-color);&quot;&gt;Timestamp datetime&lt;br&gt;Gender Varchar (10)&lt;br&gt;SexualOrientation Varchar (50)&lt;br&gt;Country Varchar (100)&lt;br&gt;RealTimeLocation Varchar (250)" style="text;html=1;align=left;verticalAlign=middle;resizable=0;points=[];autosize=1;strokeColor=none;fillColor=none;" parent="6yo70VMg6lP2LdjrL4yp-1" vertex="1">
          <mxGeometry x="3" y="15" width="230" height="190" as="geometry" />
        </mxCell>
        <mxCell id="6yo70VMg6lP2LdjrL4yp-5" value="ORGANISATION" style="swimlane;whiteSpace=wrap;html=1;fillColor=#dae8fc;strokeColor=#6c8ebf;" parent="WIyWlLk6GJQsqaUBKTNV-1" vertex="1">
          <mxGeometry x="320" y="-530" width="280" height="210" as="geometry" />
        </mxCell>
        <mxCell id="yurnyccXjnJKwhIjf-WH-16" value="PK-OrganisationID NOT NULL int(10)&lt;br&gt;Organisation_Name NOT NULL Varchar(50)&lt;br&gt;Organisation_Type NOT NULL Varchar(50)&lt;br&gt;FK-CityID Int (20)&lt;br&gt;FK-InfoIDInt (20)&lt;br&gt;FK- AdminUsername NOT NULL Varchar (50)&lt;br&gt;PhoneNumber Int (20)&lt;br&gt;Email&amp;nbsp; NOT NULL Varchar(50)&lt;br&gt;Timestamp datetime" style="text;html=1;align=left;verticalAlign=middle;resizable=0;points=[];autosize=1;strokeColor=none;fillColor=none;" parent="6yo70VMg6lP2LdjrL4yp-5" vertex="1">
          <mxGeometry x="10" y="55" width="270" height="140" as="geometry" />
        </mxCell>
        <mxCell id="6yo70VMg6lP2LdjrL4yp-20" value="SUPPORT INFO" style="swimlane;whiteSpace=wrap;html=1;fillColor=#dae8fc;strokeColor=#6c8ebf;" parent="WIyWlLk6GJQsqaUBKTNV-1" vertex="1">
          <mxGeometry x="330" y="-250" width="270" height="200" as="geometry" />
        </mxCell>
        <mxCell id="6yo70VMg6lP2LdjrL4yp-53" value="PK-InfoID int (10)&lt;br&gt;ChannelLink Varchar (50)&lt;br&gt;ChannelName Varchar (50)" style="text;html=1;align=left;verticalAlign=middle;resizable=0;points=[];autosize=1;strokeColor=none;fillColor=none;" parent="6yo70VMg6lP2LdjrL4yp-20" vertex="1">
          <mxGeometry x="20" y="40" width="170" height="60" as="geometry" />
        </mxCell>
        <mxCell id="6yo70VMg6lP2LdjrL4yp-25" value="FORUM" style="swimlane;whiteSpace=wrap;html=1;fillColor=#fff2cc;strokeColor=#d6b656;labelBorderColor=#FF4719;" parent="WIyWlLk6GJQsqaUBKTNV-1" vertex="1">
          <mxGeometry x="1930" y="-800" width="235" height="200" as="geometry" />
        </mxCell>
        <mxCell id="6yo70VMg6lP2LdjrL4yp-56" value="PK-ForumID int (10)&lt;br&gt;FK- Username&lt;br&gt;&lt;font color=&quot;#ff3333&quot;&gt;FK-PolicyID&amp;nbsp;&lt;br style=&quot;border-color: var(--border-color);&quot;&gt;&lt;/font&gt;TimeStamp datetime&lt;br&gt;MessageSubject Varchar (250)&lt;br&gt;Message Varchar (1000)" style="text;html=1;align=left;verticalAlign=middle;resizable=0;points=[];autosize=1;strokeColor=none;fillColor=none;" parent="6yo70VMg6lP2LdjrL4yp-25" vertex="1">
          <mxGeometry x="21" y="50" width="190" height="100" as="geometry" />
        </mxCell>
        <mxCell id="6yo70VMg6lP2LdjrL4yp-33" value="CONTENT" style="swimlane;whiteSpace=wrap;html=1;fillColor=#dae8fc;strokeColor=#6c8ebf;startSize=23;" parent="WIyWlLk6GJQsqaUBKTNV-1" vertex="1">
          <mxGeometry x="580" y="-790" width="280" height="210" as="geometry" />
        </mxCell>
        <mxCell id="6yo70VMg6lP2LdjrL4yp-35" value="ContentID int(10)&lt;br&gt;Announcement_Title Varchar (250)&lt;br&gt;AnnouncementMessage(1000)&lt;br&gt;TipsTitle Varchar (250)&lt;br&gt;TipsMessage Varchar(1000)&lt;br&gt;Timestamps datetime&lt;br&gt;FK-AdminUsername NOT NULL Varchar(50)" style="text;html=1;align=left;verticalAlign=middle;resizable=0;points=[];autosize=1;strokeColor=none;fillColor=none;" parent="6yo70VMg6lP2LdjrL4yp-33" vertex="1">
          <mxGeometry x="10" y="30" width="260" height="110" as="geometry" />
        </mxCell>
        <mxCell id="6yo70VMg6lP2LdjrL4yp-37" value="CHATBOT" style="swimlane;whiteSpace=wrap;html=1;fillColor=#d5e8d4;strokeColor=#82b366;align=center;" parent="WIyWlLk6GJQsqaUBKTNV-1" vertex="1">
          <mxGeometry x="1140" y="-790" width="250" height="200" as="geometry" />
        </mxCell>
        <mxCell id="6yo70VMg6lP2LdjrL4yp-41" value="PK-ChatID Varchar(20)&lt;br&gt;FAQ_ID int(10)" style="text;html=1;align=left;verticalAlign=middle;resizable=0;points=[];autosize=1;strokeColor=none;fillColor=none;" parent="6yo70VMg6lP2LdjrL4yp-37" vertex="1">
          <mxGeometry x="20" y="45" width="150" height="40" as="geometry" />
        </mxCell>
        <mxCell id="6yo70VMg6lP2LdjrL4yp-50" value="DATA POLICY" style="swimlane;whiteSpace=wrap;html=1;fillColor=#d5e8d4;strokeColor=#82b366;align=center;" parent="WIyWlLk6GJQsqaUBKTNV-1" vertex="1">
          <mxGeometry x="1930" y="-550" width="235" height="200" as="geometry" />
        </mxCell>
        <mxCell id="6yo70VMg6lP2LdjrL4yp-51" value="PK-PolicyID Int (10)&lt;br&gt;ClassificationType Varchar (5)&lt;br&gt;KeyWord Varchar (250)" style="text;html=1;align=left;verticalAlign=middle;resizable=0;points=[];autosize=1;strokeColor=none;fillColor=none;" parent="6yo70VMg6lP2LdjrL4yp-50" vertex="1">
          <mxGeometry x="20" y="45" width="180" height="60" as="geometry" />
        </mxCell>
        <mxCell id="2uVpW_mxuj3ojrGI71kV-70" value="&lt;font style=&quot;font-size: 12px;&quot;&gt;ClassificationType refers to Tag/Flag&lt;/font&gt;" style="shape=note;strokeWidth=2;fontSize=14;size=20;whiteSpace=wrap;html=1;fillColor=#fff2cc;strokeColor=#d6b656;fontColor=#666600;labelBorderColor=#FF4719;" parent="6yo70VMg6lP2LdjrL4yp-50" vertex="1">
          <mxGeometry x="45" y="105" width="110.00000000000001" height="80" as="geometry" />
        </mxCell>
        <mxCell id="yurnyccXjnJKwhIjf-WH-17" value="GREEN: In-App Data&lt;br&gt;YELLOW: Input by User&lt;br&gt;BLUE: Input by Admin" style="text;html=1;align=center;verticalAlign=middle;resizable=0;points=[];autosize=1;strokeColor=#b85450;fillColor=#f8cecc;" parent="WIyWlLk6GJQsqaUBKTNV-1" vertex="1">
          <mxGeometry x="350" y="-780" width="150" height="60" as="geometry" />
        </mxCell>
        <mxCell id="2uVpW_mxuj3ojrGI71kV-15" value="SafeSocialZone" style="swimlane;whiteSpace=wrap;html=1;fillColor=#d5e8d4;strokeColor=#82b366;startSize=23;align=left;" parent="WIyWlLk6GJQsqaUBKTNV-1" vertex="1">
          <mxGeometry x="730" y="-532.5" width="280" height="210" as="geometry" />
        </mxCell>
        <mxCell id="2uVpW_mxuj3ojrGI71kV-22" value="PK-SocialZoneID NOT NULL int (10)&lt;br&gt;FK-CityID int (10)&lt;br&gt;FK-SurburbID int(10)&lt;br&gt;FK-ProvinceID int(10)&lt;br&gt;FK-OrganisationID int (10)&lt;br&gt;SocialZoneName" style="text;html=1;align=left;verticalAlign=middle;resizable=0;points=[];autosize=1;strokeColor=none;fillColor=none;" parent="2uVpW_mxuj3ojrGI71kV-15" vertex="1">
          <mxGeometry x="15" y="35" width="220" height="100" as="geometry" />
        </mxCell>
        <mxCell id="2uVpW_mxuj3ojrGI71kV-41" value="EMERGENCY CONTACT" style="swimlane;whiteSpace=wrap;html=1;fillColor=#fff2cc;strokeColor=#d6b656;" parent="WIyWlLk6GJQsqaUBKTNV-1" vertex="1">
          <mxGeometry x="-45" y="-250" width="285" height="200" as="geometry" />
        </mxCell>
        <mxCell id="2uVpW_mxuj3ojrGI71kV-42" value="FK- Username NOT NULL Varchar (50)&lt;br&gt;PK-EmergencyContactID NOT NULL Int(50)&lt;br&gt;EM_Name NOT NULL Varchar (50)&lt;br&gt;Primary_CellNo NOT NULL Varchar (50)&lt;br&gt;Alternative_CellNumber&amp;nbsp; Varchar (50)&lt;br&gt;Email NOT NULL Varchar (50)&lt;br&gt;Timestamp datetime" style="text;html=1;align=left;verticalAlign=middle;resizable=0;points=[];autosize=1;strokeColor=none;fillColor=none;" parent="2uVpW_mxuj3ojrGI71kV-41" vertex="1">
          <mxGeometry x="21" y="25" width="260" height="110" as="geometry" />
        </mxCell>
        <mxCell id="2uVpW_mxuj3ojrGI71kV-44" value="FAQ" style="swimlane;whiteSpace=wrap;html=1;fillColor=#d5e8d4;strokeColor=#82b366;align=center;" parent="WIyWlLk6GJQsqaUBKTNV-1" vertex="1">
          <mxGeometry x="1140" y="-520" width="250" height="200" as="geometry" />
        </mxCell>
        <mxCell id="2uVpW_mxuj3ojrGI71kV-45" value="&lt;br&gt;PK-FAQ_ID int(10)&lt;br&gt;Questions Varchar (500)&lt;br&gt;Answers Varchar (500)" style="text;html=1;align=left;verticalAlign=middle;resizable=0;points=[];autosize=1;strokeColor=none;fillColor=none;" parent="2uVpW_mxuj3ojrGI71kV-44" vertex="1">
          <mxGeometry x="35" y="25" width="150" height="70" as="geometry" />
        </mxCell>
        <mxCell id="2uVpW_mxuj3ojrGI71kV-61" value="1" style="text;html=1;align=center;verticalAlign=middle;resizable=0;points=[];autosize=1;strokeColor=none;fillColor=none;fontColor=#FF3333;" parent="WIyWlLk6GJQsqaUBKTNV-1" vertex="1">
          <mxGeometry x="15" y="-435" width="30" height="30" as="geometry" />
        </mxCell>
        <mxCell id="2uVpW_mxuj3ojrGI71kV-62" value="Text" style="text;html=1;align=center;verticalAlign=middle;resizable=0;points=[];autosize=1;strokeColor=none;fillColor=none;fontColor=#FF3333;" parent="WIyWlLk6GJQsqaUBKTNV-1" vertex="1">
          <mxGeometry x="-5" y="-205" width="50" height="30" as="geometry" />
        </mxCell>
        <mxCell id="2uVpW_mxuj3ojrGI71kV-68" value="ADMINUSER" style="swimlane;whiteSpace=wrap;html=1;fillColor=#dae8fc;strokeColor=#6c8ebf;startSize=23;" parent="WIyWlLk6GJQsqaUBKTNV-1" vertex="1">
          <mxGeometry x="-45" y="-780" width="285" height="200" as="geometry" />
        </mxCell>
        <mxCell id="2uVpW_mxuj3ojrGI71kV-69" value="PK- AdminUsername NOT NULL Varchar(50)&lt;br&gt;Password NOT NULL Varchar(20)&lt;br&gt;Name Varchar(50)&lt;br&gt;Surname Varchar(50)&lt;br&gt;Email NOT NULL Varchar(50)&lt;br&gt;CellNumber NOT NULL Int(10)&lt;br&gt;AlternativeCellNumber Int(10)&lt;br&gt;FK-ContentID Int (10)&lt;br style=&quot;border-color: var(--border-color);&quot;&gt;Timestamp datetime" style="text;html=1;align=left;verticalAlign=middle;resizable=0;points=[];autosize=1;strokeColor=none;fillColor=none;" parent="2uVpW_mxuj3ojrGI71kV-68" vertex="1">
          <mxGeometry x="3" y="30" width="260" height="140" as="geometry" />
        </mxCell>
        <mxCell id="2uVpW_mxuj3ojrGI71kV-71" value="CHATBOTUSERCONTACT" style="swimlane;whiteSpace=wrap;html=1;fillColor=#fff2cc;strokeColor=#d6b656;align=center;" parent="WIyWlLk6GJQsqaUBKTNV-1" vertex="1">
          <mxGeometry x="1512" y="-790" width="255" height="200" as="geometry" />
        </mxCell>
        <mxCell id="2uVpW_mxuj3ojrGI71kV-72" value="FK-ChatID NOT NULL Varchar(20)&lt;br style=&quot;border-color: var(--border-color);&quot;&gt;Message NOT NULL Varchar (1000)&lt;br&gt;CellNumber NOT NULL int(10)&lt;br&gt;Email Varchar (50)&lt;br&gt;Timestamp datetime&lt;br&gt;PK-CBContactID" style="text;html=1;align=left;verticalAlign=middle;resizable=0;points=[];autosize=1;strokeColor=none;fillColor=none;" parent="2uVpW_mxuj3ojrGI71kV-71" vertex="1">
          <mxGeometry x="20" y="35" width="220" height="100" as="geometry" />
        </mxCell>
        <mxCell id="2uVpW_mxuj3ojrGI71kV-73" value="USER_FEEDBACK" style="swimlane;whiteSpace=wrap;html=1;fillColor=#fff2cc;strokeColor=#d6b656;align=center;" parent="WIyWlLk6GJQsqaUBKTNV-1" vertex="1">
          <mxGeometry x="1510" y="-522.5" width="257" height="200" as="geometry" />
        </mxCell>
        <mxCell id="2uVpW_mxuj3ojrGI71kV-74" value="FK-ChatID NOT NULL Varchar(20)&lt;br style=&quot;border-color: var(--border-color);&quot;&gt;Message NOT NULL Varchar(250)&lt;br&gt;PK-UserFeedBackID NOT NUll (250)" style="text;html=1;align=left;verticalAlign=middle;resizable=0;points=[];autosize=1;strokeColor=none;fillColor=none;" parent="2uVpW_mxuj3ojrGI71kV-73" vertex="1">
          <mxGeometry x="37" y="35" width="220" height="60" as="geometry" />
        </mxCell>
        <mxCell id="Yy6AOTnck7KrNuzbiVMf-2" value="" style="edgeStyle=entityRelationEdgeStyle;fontSize=12;html=1;endArrow=ERmany;rounded=0;exitX=1;exitY=0.5;exitDx=0;exitDy=0;entryX=1;entryY=0.5;entryDx=0;entryDy=0;" parent="WIyWlLk6GJQsqaUBKTNV-1" source="6yo70VMg6lP2LdjrL4yp-1" target="2uVpW_mxuj3ojrGI71kV-41" edge="1">
          <mxGeometry width="100" height="100" relative="1" as="geometry">
            <mxPoint x="-50" y="-430" as="sourcePoint" />
            <mxPoint x="-51" y="-120" as="targetPoint" />
          </mxGeometry>
        </mxCell>
        <mxCell id="Yy6AOTnck7KrNuzbiVMf-3" value="" style="edgeStyle=entityRelationEdgeStyle;fontSize=12;html=1;endArrow=ERmany;rounded=0;exitX=1;exitY=0.5;exitDx=0;exitDy=0;entryX=0;entryY=0.5;entryDx=0;entryDy=0;" parent="WIyWlLk6GJQsqaUBKTNV-1" source="2uVpW_mxuj3ojrGI71kV-68" target="6yo70VMg6lP2LdjrL4yp-33" edge="1">
          <mxGeometry width="100" height="100" relative="1" as="geometry">
            <mxPoint x="290" y="-530" as="sourcePoint" />
            <mxPoint x="1080" y="-550" as="targetPoint" />
          </mxGeometry>
        </mxCell>
        <mxCell id="Yy6AOTnck7KrNuzbiVMf-6" value="" style="edgeStyle=entityRelationEdgeStyle;fontSize=12;html=1;endArrow=ERmany;startArrow=ERmany;rounded=0;entryX=1;entryY=0.5;entryDx=0;entryDy=0;" parent="WIyWlLk6GJQsqaUBKTNV-1" target="6yo70VMg6lP2LdjrL4yp-5" edge="1">
          <mxGeometry width="100" height="100" relative="1" as="geometry">
            <mxPoint x="600" y="-120" as="sourcePoint" />
            <mxPoint x="460" y="-330" as="targetPoint" />
          </mxGeometry>
        </mxCell>
        <mxCell id="Yy6AOTnck7KrNuzbiVMf-7" value="" style="edgeStyle=entityRelationEdgeStyle;fontSize=12;html=1;endArrow=ERmany;rounded=0;entryX=0;entryY=0.5;entryDx=0;entryDy=0;" parent="WIyWlLk6GJQsqaUBKTNV-1" target="2uVpW_mxuj3ojrGI71kV-15" edge="1">
          <mxGeometry width="100" height="100" relative="1" as="geometry">
            <mxPoint x="600" y="-440" as="sourcePoint" />
            <mxPoint x="650" y="-470" as="targetPoint" />
          </mxGeometry>
        </mxCell>
        <mxCell id="Yy6AOTnck7KrNuzbiVMf-8" value="" style="edgeStyle=entityRelationEdgeStyle;fontSize=12;html=1;endArrow=ERmany;rounded=0;entryX=0;entryY=0.5;entryDx=0;entryDy=0;exitX=1;exitY=0.75;exitDx=0;exitDy=0;" parent="WIyWlLk6GJQsqaUBKTNV-1" source="2uVpW_mxuj3ojrGI71kV-68" target="6yo70VMg6lP2LdjrL4yp-5" edge="1">
          <mxGeometry width="100" height="100" relative="1" as="geometry">
            <mxPoint x="314" y="-580" as="sourcePoint" />
            <mxPoint x="414" y="-680" as="targetPoint" />
          </mxGeometry>
        </mxCell>
        <mxCell id="Yy6AOTnck7KrNuzbiVMf-10" value="" style="edgeStyle=entityRelationEdgeStyle;fontSize=12;html=1;endArrow=ERmany;startArrow=ERmany;rounded=0;entryX=1;entryY=0.5;entryDx=0;entryDy=0;exitX=1;exitY=0.5;exitDx=0;exitDy=0;" parent="WIyWlLk6GJQsqaUBKTNV-1" source="2uVpW_mxuj3ojrGI71kV-44" target="6yo70VMg6lP2LdjrL4yp-37" edge="1">
          <mxGeometry width="100" height="100" relative="1" as="geometry">
            <mxPoint x="1280" y="-510" as="sourcePoint" />
            <mxPoint x="1380" y="-610" as="targetPoint" />
          </mxGeometry>
        </mxCell>
        <mxCell id="Yy6AOTnck7KrNuzbiVMf-11" value="" style="edgeStyle=entityRelationEdgeStyle;fontSize=12;html=1;endArrow=ERmany;startArrow=ERmany;rounded=0;entryX=0;entryY=0.25;entryDx=0;entryDy=0;" parent="WIyWlLk6GJQsqaUBKTNV-1" target="2uVpW_mxuj3ojrGI71kV-73" edge="1">
          <mxGeometry width="100" height="100" relative="1" as="geometry">
            <mxPoint x="1390" y="-720" as="sourcePoint" />
            <mxPoint x="1530" y="-490" as="targetPoint" />
          </mxGeometry>
        </mxCell>
        <mxCell id="Yy6AOTnck7KrNuzbiVMf-12" value="" style="edgeStyle=entityRelationEdgeStyle;fontSize=12;html=1;endArrow=ERmany;startArrow=ERmany;rounded=0;exitX=1;exitY=0.25;exitDx=0;exitDy=0;" parent="WIyWlLk6GJQsqaUBKTNV-1" source="6yo70VMg6lP2LdjrL4yp-37" edge="1">
          <mxGeometry width="100" height="100" relative="1" as="geometry">
            <mxPoint x="1412" y="-650" as="sourcePoint" />
            <mxPoint x="1512" y="-750" as="targetPoint" />
          </mxGeometry>
        </mxCell>
        <mxCell id="Yy6AOTnck7KrNuzbiVMf-13" value="" style="edgeStyle=entityRelationEdgeStyle;fontSize=12;html=1;endArrow=ERmany;startArrow=ERmany;rounded=0;entryX=1;entryY=0.5;entryDx=0;entryDy=0;" parent="WIyWlLk6GJQsqaUBKTNV-1" target="6yo70VMg6lP2LdjrL4yp-25" edge="1">
          <mxGeometry width="100" height="100" relative="1" as="geometry">
            <mxPoint x="2167.5" y="-450" as="sourcePoint" />
            <mxPoint x="1927.5" y="-690" as="targetPoint" />
          </mxGeometry>
        </mxCell>
      </root>
    </mxGraphModel>
  </diagram>
</mxfile>
